# xmcd
#
# Track frame offsets:
#	150
#	24684
#	47628
#	68586
#	89494
#	119555
#	140862
#	165407
#	194139
#	211273
#	223280
#	266856
#	284718
#
# Disc length: 4085 seconds
#
# Revision: 1
# Processed by: cddbd v1.4PL0 Copyright (c) Steve Scherf et al.
# Submitted via: audiograbber 1.80
#
DISCID=dd0ff30d
DTITLE=Andy Mazzilli - Magic Maz
DYEAR=1900
DGENRE=
TTITLE0=You are the one that I love
TTITLE1=Self Inflicted Blues {tk2}
TTITLE2=Bitta' Sweet Romance
TTITLE3=Gimme' Back My Gold
TTITLE4=Bullet Proof
TTITLE5=Francine
TTITLE6=Jail Farm
TTITLE7=Too Much Pollution
TTITLE8=Love Fatal
TTITLE9=Strung Up
TTITLE10=Politition's Stew
TTITLE11=baby! You gota treat me right!
TTITLE12=Self Inflicted Blues {tk-1}
EXTD=
EXTT0=
EXTT1=
EXTT2=
EXTT3=
EXTT4=
EXTT5=
EXTT6=
EXTT7=
EXTT8=
EXTT9=
EXTT10=
EXTT11=
EXTT12=
PLAYORDER=
